<svg width="57" height="55" viewBox="0 0 57 55" fill="none" xmlns="http://www.w3.org/2000/svg">
<ellipse cx="28.3717" cy="27.5" rx="28.2" ry="27.5" fill="#FFF5D9"/>
<path d="M29.8708 24.379C30.3978 24.379 30.8281 24.7831 30.8281 25.2792C30.8281 25.7319 31.2189 26.0988 31.6997 26.0988C32.1795 26.0988 32.5703 25.7319 32.5703 25.2792C32.5703 24.1671 31.8007 23.2287 30.7414 22.8856V22.4205C30.7414 21.9688 30.3516 21.5999 29.8708 21.5999C29.3889 21.5999 28.9992 21.9688 28.9992 22.4205V22.8856C27.9398 23.2287 27.1724 24.1671 27.1724 25.2792C27.1724 26.6817 28.3822 27.8206 29.8708 27.8206C30.3978 27.8206 30.8281 28.2257 30.8281 28.7218C30.8281 29.2189 30.3978 29.6231 29.8708 29.6231C29.3439 29.6231 28.9146 29.2189 28.9146 28.7218C28.9146 28.2691 28.5238 27.9012 28.043 27.9012C27.5611 27.9012 27.1724 28.2691 27.1724 28.7218C27.1724 29.8339 27.9398 30.7713 28.9992 31.1144V31.5795C28.9992 32.0332 29.3889 32.4011 29.8708 32.4011C30.3516 32.4011 30.7414 32.0332 30.7414 31.5795V31.1144C31.8007 30.7713 32.5703 29.8339 32.5703 28.7218C32.5703 27.3204 31.3594 26.1804 29.8708 26.1804C29.3439 26.1804 28.9146 25.7763 28.9146 25.2792C28.9146 24.7831 29.3439 24.379 29.8708 24.379ZM37.17 31.5547C37.5971 31.7666 38.1229 31.6126 38.3468 31.2136C39.0714 29.9248 39.4534 28.4676 39.4534 27C39.4534 22.0267 35.1534 17.9795 29.8708 17.9795C24.5872 17.9795 20.2882 22.0267 20.2882 27C20.2882 31.9743 24.5872 36.0215 29.8708 36.0215C31.4066 36.0215 32.9325 35.6722 34.2839 35.0097C34.711 34.802 34.8767 34.3049 34.655 33.9039C34.4332 33.5039 33.9074 33.3447 33.4792 33.5545C32.3606 34.1044 31.1453 34.3824 29.8708 34.3824C25.5477 34.3824 22.0293 31.071 22.0293 27C22.0293 22.931 25.5477 19.6186 29.8708 19.6186C34.1939 19.6186 37.7123 22.931 37.7123 27C37.7123 28.202 37.3984 29.3936 36.8077 30.4457C36.5816 30.8467 36.7441 31.3428 37.17 31.5547ZM29.8708 14.697C27.347 14.697 24.8967 15.3771 22.7857 16.6617C22.3806 16.9077 22.2653 17.4152 22.5266 17.7955C22.789 18.1758 23.3258 18.2833 23.732 18.0394C25.5587 16.9273 27.684 16.3382 29.8708 16.3382C36.1161 16.3382 41.1956 21.1214 41.1956 27C41.1956 32.8797 36.1161 37.6628 29.8708 37.6628C23.6255 37.6628 18.5449 32.8797 18.5449 27C18.5449 24.9609 19.1586 22.9775 20.3211 21.2671C20.5802 20.8847 20.4617 20.3772 20.0555 20.1333C19.6504 19.8894 19.1114 20.001 18.8534 20.3824C17.5119 22.3574 16.8027 24.6477 16.8027 27C16.8027 33.785 22.6638 39.303 29.8708 39.303C37.0767 39.303 42.9389 33.785 42.9389 27C42.9389 20.217 37.0767 14.697 29.8708 14.697Z" fill="#FED257"/>
</svg>
