<svg width="59" height="55" viewBox="0 0 59 55" fill="none" xmlns="http://www.w3.org/2000/svg">
<ellipse cx="29.3818" cy="27.5" rx="29.2102" ry="27.5" fill="#E7EDFF"/>
<path d="M29.8708 25.379C30.3978 25.379 30.8281 25.7831 30.8281 26.2792C30.8281 26.7319 31.2189 27.0988 31.6997 27.0988C32.1795 27.0988 32.5703 26.7319 32.5703 26.2792C32.5703 25.1671 31.8007 24.2287 30.7414 23.8856V23.4205C30.7414 22.9688 30.3516 22.5999 29.8708 22.5999C29.3889 22.5999 28.9992 22.9688 28.9992 23.4205V23.8856C27.9398 24.2287 27.1724 25.1671 27.1724 26.2792C27.1724 27.6817 28.3822 28.8206 29.8708 28.8206C30.3978 28.8206 30.8281 29.2257 30.8281 29.7218C30.8281 30.2189 30.3978 30.6231 29.8708 30.6231C29.3439 30.6231 28.9146 30.2189 28.9146 29.7218C28.9146 29.2691 28.5238 28.9012 28.043 28.9012C27.5611 28.9012 27.1724 29.2691 27.1724 29.7218C27.1724 30.8339 27.9398 31.7713 28.9992 32.1144V32.5795C28.9992 33.0332 29.3889 33.4011 29.8708 33.4011C30.3516 33.4011 30.7414 33.0332 30.7414 32.5795V32.1144C31.8007 31.7713 32.5703 30.8339 32.5703 29.7218C32.5703 28.3204 31.3594 27.1804 29.8708 27.1804C29.3439 27.1804 28.9146 26.7763 28.9146 26.2792C28.9146 25.7831 29.3439 25.379 29.8708 25.379ZM37.17 32.5547C37.5971 32.7666 38.1229 32.6126 38.3468 32.2136C39.0714 30.9248 39.4534 29.4676 39.4534 28C39.4534 23.0267 35.1534 18.9795 29.8708 18.9795C24.5872 18.9795 20.2882 23.0267 20.2882 28C20.2882 32.9743 24.5872 37.0215 29.8708 37.0215C31.4066 37.0215 32.9325 36.6722 34.2839 36.0097C34.711 35.802 34.8767 35.3049 34.655 34.9039C34.4332 34.5039 33.9074 34.3447 33.4792 34.5545C32.3606 35.1044 31.1453 35.3824 29.8708 35.3824C25.5477 35.3824 22.0293 32.071 22.0293 28C22.0293 23.931 25.5477 20.6186 29.8708 20.6186C34.1939 20.6186 37.7123 23.931 37.7123 28C37.7123 29.202 37.3984 30.3936 36.8077 31.4457C36.5816 31.8467 36.7441 32.3428 37.17 32.5547ZM29.8708 15.697C27.347 15.697 24.8967 16.3771 22.7857 17.6617C22.3806 17.9077 22.2653 18.4152 22.5266 18.7955C22.789 19.1758 23.3258 19.2833 23.732 19.0394C25.5587 17.9273 27.684 17.3382 29.8708 17.3382C36.1161 17.3382 41.1956 22.1214 41.1956 28C41.1956 33.8797 36.1161 38.6628 29.8708 38.6628C23.6255 38.6628 18.5449 33.8797 18.5449 28C18.5449 25.9609 19.1586 23.9775 20.3211 22.2671C20.5802 21.8847 20.4617 21.3772 20.0555 21.1333C19.6504 20.8894 19.1114 21.001 18.8534 21.3824C17.5119 23.3574 16.8027 25.6477 16.8027 28C16.8027 34.785 22.6638 40.303 29.8708 40.303C37.0767 40.303 42.9389 34.785 42.9389 28C42.9389 21.217 37.0767 15.697 29.8708 15.697Z" fill="#7598FF"/>
</svg>
