<svg width="59" height="55" viewBox="0 0 59 55" fill="none" xmlns="http://www.w3.org/2000/svg">
<ellipse cx="29.2102" cy="27.5" rx="29.2102" ry="27.5" fill="#DCFAF8"/>
<path d="M29.7414 25.379C30.2684 25.379 30.6987 25.7831 30.6987 26.2792C30.6987 26.7319 31.0895 27.0988 31.5703 27.0988C32.0501 27.0988 32.4409 26.7319 32.4409 26.2792C32.4409 25.1671 31.6713 24.2287 30.612 23.8856V23.4205C30.612 22.9688 30.2223 22.5999 29.7414 22.5999C29.2595 22.5999 28.8698 22.9688 28.8698 23.4205V23.8856C27.8104 24.2287 27.0431 25.1671 27.0431 26.2792C27.0431 27.6817 28.2528 28.8206 29.7414 28.8206C30.2684 28.8206 30.6987 29.2257 30.6987 29.7218C30.6987 30.2189 30.2684 30.6231 29.7414 30.6231C29.2145 30.6231 28.7852 30.2189 28.7852 29.7218C28.7852 29.2691 28.3944 28.9012 27.9136 28.9012C27.4317 28.9012 27.0431 29.2691 27.0431 29.7218C27.0431 30.8339 27.8104 31.7713 28.8698 32.1144V32.5795C28.8698 33.0332 29.2595 33.4011 29.7414 33.4011C30.2223 33.4011 30.612 33.0332 30.612 32.5795V32.1144C31.6713 31.7713 32.4409 30.8339 32.4409 29.7218C32.4409 28.3204 31.23 27.1804 29.7414 27.1804C29.2145 27.1804 28.7852 26.7763 28.7852 26.2792C28.7852 25.7831 29.2145 25.379 29.7414 25.379ZM37.0406 32.5547C37.4677 32.7666 37.9935 32.6126 38.2174 32.2136C38.942 30.9248 39.324 29.4676 39.324 28C39.324 23.0267 35.024 18.9795 29.7414 18.9795C24.4578 18.9795 20.1588 23.0267 20.1588 28C20.1588 32.9743 24.4578 37.0215 29.7414 37.0215C31.2772 37.0215 32.8032 36.6722 34.1545 36.0097C34.5816 35.802 34.7473 35.3049 34.5256 34.9039C34.3038 34.5039 33.778 34.3447 33.3499 34.5545C32.2312 35.1044 31.016 35.3824 29.7414 35.3824C25.4183 35.3824 21.8999 32.071 21.8999 28C21.8999 23.931 25.4183 20.6186 29.7414 20.6186C34.0645 20.6186 37.5829 23.931 37.5829 28C37.5829 29.202 37.269 30.3936 36.6783 31.4457C36.4522 31.8467 36.6147 32.3428 37.0406 32.5547V32.5547ZM29.7414 15.697C27.2176 15.697 24.7673 16.3771 22.6563 17.6617C22.2512 17.9077 22.1359 18.4152 22.3972 18.7955C22.6596 19.1758 23.1964 19.2833 23.6026 19.0394C25.4293 17.9273 27.5546 17.3382 29.7414 17.3382C35.9867 17.3382 41.0662 22.1214 41.0662 28C41.0662 33.8797 35.9867 38.6628 29.7414 38.6628C23.4961 38.6628 18.4155 33.8797 18.4155 28C18.4155 25.9609 19.0292 23.9775 20.1918 22.2671C20.4508 21.8847 20.3323 21.3772 19.9261 21.1333C19.521 20.8894 18.982 21.001 18.724 21.3824C17.3825 23.3574 16.6733 25.6477 16.6733 28C16.6733 34.785 22.5344 40.303 29.7414 40.303C36.9473 40.303 42.8095 34.785 42.8095 28C42.8095 21.217 36.9473 15.697 29.7414 15.697V15.697Z" fill="#16DBCC"/>
</svg>
